<svg xmlns="http://www.w3.org/2000/svg" width="96" height="96" viewBox="0 0 96 96" fill="none">
  <rect width="96" height="96" rx="28" fill="url(#paint0_linear_1_2)"/>
  <path d="M27 67V29H46.4C53.9 29 59.1 30.5 62 33.6C64.8 36.7 66.2 40.8 66.2 45.8C66.2 51 64.6 55.1 61.5 58.2C58.4 61.3 53.3 62.8 46.2 62.8H36.8V67H27ZM36.8 54.5H45.4C48.7 54.5 51.1 53.8 52.8 52.5C54.5 51.2 55.3 49 55.3 45.9C55.3 42.8 54.5 40.6 52.9 39.3C51.3 38 48.9 37.3 45.6 37.3H36.8V54.5Z" fill="white"/>
  <defs>
    <linearGradient id="paint0_linear_1_2" x1="10" y1="10" x2="84" y2="88" gradientUnits="userSpaceOnUse">
      <stop stop-color="#3559E6"/>
      <stop offset="1" stop-color="#10B4D2"/>
    </linearGradient>
  </defs>
</svg>